<svg width="1200" height="630" viewBox="0 0 1200 630" fill="none" xmlns="http://www.w3.org/2000/svg">
  <defs>
    <linearGradient id="bg" x1="80" y1="40" x2="1120" y2="590" gradientUnits="userSpaceOnUse">
      <stop stop-color="#0B0F14"/>
      <stop offset="1" stop-color="#121A24"/>
    </linearGradient>
    <linearGradient id="line" x1="0" y1="0" x2="1" y2="1">
      <stop stop-color="#6EE7B7" stop-opacity="0.55"/>
      <stop offset="1" stop-color="#60A5FA" stop-opacity="0.2"/>
    </linearGradient>
    <filter id="blur" x="-200" y="-200" width="1600" height="1030" filterUnits="userSpaceOnUse" color-interpolation-filters="sRGB">
      <feGaussianBlur stdDeviation="70"/>
    </filter>
  </defs>

  <rect width="1200" height="630" rx="24" fill="url(#bg)"/>
  <g opacity="0.5">
    <path d="M64 520C230 390 356 442 520 356C716 252 862 272 1136 120" stroke="url(#line)" stroke-width="2"/>
    <path d="M64 560C248 440 370 498 544 404C744 296 892 320 1136 190" stroke="url(#line)" stroke-opacity="0.4" stroke-width="1.5"/>
  </g>

  <g filter="url(#blur)">
    <circle cx="1040" cy="120" r="120" fill="#22D3EE" fill-opacity="0.25"/>
    <circle cx="980" cy="480" r="130" fill="#34D399" fill-opacity="0.2"/>
  </g>

  <rect x="72" y="68" width="170" height="36" rx="18" fill="#FFFFFF" fill-opacity="0.08" stroke="#FFFFFF" stroke-opacity="0.18"/>
  <text x="95" y="91" fill="#D1D5DB" font-family="Arial, Helvetica, sans-serif" font-size="15" font-weight="700" letter-spacing="2">THEODORE'S BLOG</text>

  <text x="72" y="250" fill="#F9FAFB" font-family="Georgia, 'Times New Roman', serif" font-size="64" font-weight="600">
    Notes On Quality,
  </text>
  <text x="72" y="326" fill="#F9FAFB" font-family="Georgia, 'Times New Roman', serif" font-size="64" font-weight="600">
    Risk, And Shipping.
  </text>

  <text x="72" y="392" fill="#A5B4C7" font-family="Arial, Helvetica, sans-serif" font-size="29">
    Real-world QA thinking for fast product teams.
  </text>

  <line x1="72" y1="466" x2="360" y2="466" stroke="#94A3B8" stroke-opacity="0.45"/>
  <text x="72" y="506" fill="#CBD5E1" font-family="Arial, Helvetica, sans-serif" font-size="24">
    theodores.dev/blog
  </text>
</svg>
